<svg data-v-fde0c5aa="" xmlns="http://www.w3.org/2000/svg" viewBox="0 0 300 300" class="font"><!----><defs data-v-fde0c5aa=""><!----></defs><rect data-v-fde0c5aa="" fill="transparent" x="0" y="0" width="300px" height="300px" class="logo-background-square"></rect><defs data-v-fde0c5aa=""><linearGradient data-v-fde0c5aa="" gradientTransform="rotate(25)" id="f695a699-c6ae-4ab5-8804-6d863921206c" x1="0%" y1="0%" x2="100%" y2="0%"><stop data-v-fde0c5aa="" offset="0%" stop-color="#288B58" stop-opacity="1"></stop><stop data-v-fde0c5aa="" offset="100%" stop-color="#1522F1" stop-opacity="1"></stop></linearGradient></defs><g data-v-fde0c5aa="" id="4f7facf4-500a-46ed-a9ea-9c3cffd7be0b" fill="url(#f695a699-c6ae-4ab5-8804-6d863921206c)" transform="matrix(8.24587755664622,0,0,8.24587755664622,34.88755587555993,77.9310281103028)"><path d="M11.07 14.06L11.07 3.42L7.69 3.42L5.87 10.43L3.99 3.42L0.62 3.42L0.62 14.06L3.12 14.06L3.12 8.62L4.65 14.06L7.10 14.06L8.61 8.62L8.61 14.06ZM18.87 14.06L18.87 11.38L15.09 11.38C14.81 11.38 14.67 11.24 14.67 10.96L14.67 6.51C14.67 6.23 14.81 6.09 15.09 6.09L18.84 6.09L18.84 3.42L14.17 3.42C12.89 3.42 12.25 4.06 12.25 5.36L12.25 12.19C12.25 13.44 12.89 14.06 14.17 14.06ZM25.27 14.06C26.63 14.06 27.30 13.37 27.30 11.98L27.30 9.49C27.30 8.25 26.68 7.62 25.44 7.62L22.53 7.62C22.25 7.62 22.11 7.48 22.11 7.20L22.11 6.51C22.11 6.23 22.25 6.09 22.53 6.09L27.06 6.09L27.06 3.42L21.57 3.42C20.31 3.42 19.68 4.09 19.68 5.45L19.68 7.98C19.68 9.23 20.34 9.84 21.64 9.84L24.47 9.84C24.75 9.84 24.89 9.98 24.89 10.26L24.89 10.96C24.89 11.24 24.75 11.38 24.47 11.38L19.70 11.38L19.70 14.06Z"></path></g><!----><!----></svg>